<mxfile host="app.diagrams.net" agent="Mozilla/5.0 (Windows NT 10.0; Win64; x64) AppleWebKit/537.36 (KHTML, like Gecko) Chrome/130.0.0.0 Safari/537.36" version="24.8.2">
  <diagram name="Página-1" id="FR9bLYxv4u34R1BbcQBb">
    <mxGraphModel dx="1306" dy="585" grid="1" gridSize="10" guides="1" tooltips="1" connect="1" arrows="1" fold="1" page="1" pageScale="1" pageWidth="827" pageHeight="1169" math="0" shadow="0">
      <root>
        <mxCell id="0" />
        <mxCell id="1" parent="0" />
        <mxCell id="_MW00zqFSoQqqUTIqplm-12" style="edgeStyle=orthogonalEdgeStyle;rounded=0;orthogonalLoop=1;jettySize=auto;html=1;" edge="1" parent="1" source="_MW00zqFSoQqqUTIqplm-1">
          <mxGeometry relative="1" as="geometry">
            <mxPoint x="410" y="300" as="targetPoint" />
          </mxGeometry>
        </mxCell>
        <mxCell id="_MW00zqFSoQqqUTIqplm-1" value="Produto" style="swimlane;childLayout=stackLayout;horizontal=1;startSize=50;horizontalStack=0;rounded=1;fontSize=14;fontStyle=0;strokeWidth=2;resizeParent=0;resizeLast=1;shadow=0;dashed=0;align=center;arcSize=4;whiteSpace=wrap;html=1;" vertex="1" parent="1">
          <mxGeometry x="330" y="450" width="160" height="120" as="geometry" />
        </mxCell>
        <mxCell id="_MW00zqFSoQqqUTIqplm-2" value="&lt;li&gt;&lt;code&gt;id: int&lt;/code&gt;&lt;/li&gt;&lt;li&gt;&lt;code&gt;nome: string&lt;/code&gt;&lt;/li&gt;&lt;li&gt;&lt;code&gt;descricao: string&lt;/code&gt;&lt;/li&gt;&lt;li&gt;&lt;code&gt;categoria: string&lt;/code&gt;&lt;/li&gt;" style="align=left;strokeColor=none;fillColor=none;spacingLeft=4;fontSize=12;verticalAlign=top;resizable=0;rotatable=0;part=1;html=1;" vertex="1" parent="_MW00zqFSoQqqUTIqplm-1">
          <mxGeometry y="50" width="160" height="70" as="geometry" />
        </mxCell>
        <mxCell id="_MW00zqFSoQqqUTIqplm-18" style="edgeStyle=orthogonalEdgeStyle;rounded=0;orthogonalLoop=1;jettySize=auto;html=1;entryX=1;entryY=0.25;entryDx=0;entryDy=0;" edge="1" parent="1" target="_MW00zqFSoQqqUTIqplm-6">
          <mxGeometry relative="1" as="geometry">
            <mxPoint x="690" y="210" as="targetPoint" />
            <mxPoint x="689.5" y="458" as="sourcePoint" />
            <Array as="points">
              <mxPoint x="690" y="334" />
              <mxPoint x="691" y="334" />
              <mxPoint x="691" y="215" />
            </Array>
          </mxGeometry>
        </mxCell>
        <mxCell id="_MW00zqFSoQqqUTIqplm-3" value="Usuário" style="swimlane;childLayout=stackLayout;horizontal=1;startSize=50;horizontalStack=0;rounded=1;fontSize=14;fontStyle=0;strokeWidth=2;resizeParent=0;resizeLast=1;shadow=0;dashed=0;align=center;arcSize=4;whiteSpace=wrap;html=1;" vertex="1" parent="1">
          <mxGeometry x="610" y="460" width="160" height="120" as="geometry" />
        </mxCell>
        <mxCell id="_MW00zqFSoQqqUTIqplm-4" value="&lt;li&gt;&lt;code&gt;id: int&lt;/code&gt;&lt;/li&gt;&lt;li&gt;&lt;code&gt;nome: string&lt;/code&gt;&lt;/li&gt;&lt;li&gt;&lt;code&gt;email: string&lt;/code&gt;&lt;/li&gt;&lt;li&gt;&lt;code&gt;autenticado: bool&lt;/code&gt;&lt;/li&gt;" style="align=left;strokeColor=none;fillColor=none;spacingLeft=4;fontSize=12;verticalAlign=top;resizable=0;rotatable=0;part=1;html=1;" vertex="1" parent="_MW00zqFSoQqqUTIqplm-3">
          <mxGeometry y="50" width="160" height="70" as="geometry" />
        </mxCell>
        <mxCell id="_MW00zqFSoQqqUTIqplm-5" value="Feedback" style="swimlane;childLayout=stackLayout;horizontal=1;startSize=50;horizontalStack=0;rounded=1;fontSize=14;fontStyle=0;strokeWidth=2;resizeParent=0;resizeLast=1;shadow=0;dashed=0;align=center;arcSize=4;whiteSpace=wrap;html=1;" vertex="1" parent="1">
          <mxGeometry x="310" y="140" width="180" height="150" as="geometry" />
        </mxCell>
        <mxCell id="_MW00zqFSoQqqUTIqplm-6" value="&lt;li&gt;&lt;code&gt;id: int&lt;/code&gt;&lt;/li&gt;&lt;li&gt;&lt;code&gt;usuarioId: int&lt;/code&gt;&lt;/li&gt;&lt;li&gt;&lt;code&gt;produtoId: int&lt;/code&gt;&lt;/li&gt;&lt;li&gt;&lt;code&gt;texto: string&lt;/code&gt;&lt;/li&gt;&lt;li&gt;&lt;code&gt;tipo: TipoFeedback&lt;/code&gt;&lt;/li&gt;&lt;li&gt;&lt;code&gt;dataHoraEnvio: DateTime&lt;/code&gt;&lt;/li&gt;" style="align=left;strokeColor=none;fillColor=none;spacingLeft=4;fontSize=12;verticalAlign=top;resizable=0;rotatable=0;part=1;html=1;" vertex="1" parent="_MW00zqFSoQqqUTIqplm-5">
          <mxGeometry y="50" width="180" height="100" as="geometry" />
        </mxCell>
        <mxCell id="_MW00zqFSoQqqUTIqplm-8" value="Sistema" style="swimlane;childLayout=stackLayout;horizontal=1;startSize=50;horizontalStack=0;rounded=1;fontSize=14;fontStyle=0;strokeWidth=2;resizeParent=0;resizeLast=1;shadow=0;dashed=0;align=center;arcSize=4;whiteSpace=wrap;html=1;" vertex="1" parent="1">
          <mxGeometry x="50" y="440" width="180" height="120" as="geometry" />
        </mxCell>
        <mxCell id="_MW00zqFSoQqqUTIqplm-9" value="Listafeedbacks: List&amp;lt;Feedback&amp;gt;&lt;div&gt;Listaprodutos: List&amp;lt;Produtos&amp;gt;&lt;/div&gt;" style="align=left;strokeColor=none;fillColor=none;spacingLeft=4;fontSize=12;verticalAlign=top;resizable=0;rotatable=0;part=1;html=1;" vertex="1" parent="_MW00zqFSoQqqUTIqplm-8">
          <mxGeometry y="50" width="180" height="70" as="geometry" />
        </mxCell>
        <mxCell id="_MW00zqFSoQqqUTIqplm-13" value="1" style="text;html=1;align=center;verticalAlign=middle;resizable=0;points=[];autosize=1;strokeColor=none;fillColor=none;" vertex="1" parent="1">
          <mxGeometry x="415" y="428" width="30" height="30" as="geometry" />
        </mxCell>
        <mxCell id="_MW00zqFSoQqqUTIqplm-14" value="*" style="text;html=1;align=center;verticalAlign=middle;resizable=0;points=[];autosize=1;strokeColor=none;fillColor=none;" vertex="1" parent="1">
          <mxGeometry x="415" y="298" width="30" height="30" as="geometry" />
        </mxCell>
        <mxCell id="_MW00zqFSoQqqUTIqplm-15" style="edgeStyle=orthogonalEdgeStyle;rounded=0;orthogonalLoop=1;jettySize=auto;html=1;" edge="1" parent="1" source="_MW00zqFSoQqqUTIqplm-6">
          <mxGeometry relative="1" as="geometry">
            <mxPoint x="400" y="440" as="targetPoint" />
          </mxGeometry>
        </mxCell>
        <mxCell id="_MW00zqFSoQqqUTIqplm-16" value="1" style="text;html=1;align=center;verticalAlign=middle;resizable=0;points=[];autosize=1;strokeColor=none;fillColor=none;" vertex="1" parent="1">
          <mxGeometry x="375" y="288" width="30" height="30" as="geometry" />
        </mxCell>
        <mxCell id="_MW00zqFSoQqqUTIqplm-17" value="1" style="text;html=1;align=center;verticalAlign=middle;resizable=0;points=[];autosize=1;strokeColor=none;fillColor=none;" vertex="1" parent="1">
          <mxGeometry x="375" y="418" width="30" height="30" as="geometry" />
        </mxCell>
        <mxCell id="_MW00zqFSoQqqUTIqplm-20" style="edgeStyle=orthogonalEdgeStyle;rounded=0;orthogonalLoop=1;jettySize=auto;html=1;" edge="1" parent="1" source="_MW00zqFSoQqqUTIqplm-6">
          <mxGeometry relative="1" as="geometry">
            <mxPoint x="670" y="450" as="targetPoint" />
          </mxGeometry>
        </mxCell>
        <mxCell id="_MW00zqFSoQqqUTIqplm-21" value="1" style="text;html=1;align=center;verticalAlign=middle;resizable=0;points=[];autosize=1;strokeColor=none;fillColor=none;" vertex="1" parent="1">
          <mxGeometry x="695" y="418" width="30" height="30" as="geometry" />
        </mxCell>
        <mxCell id="_MW00zqFSoQqqUTIqplm-22" value="*" style="text;html=1;align=center;verticalAlign=middle;resizable=0;points=[];autosize=1;strokeColor=none;fillColor=none;" vertex="1" parent="1">
          <mxGeometry x="495" y="178" width="30" height="30" as="geometry" />
        </mxCell>
        <mxCell id="_MW00zqFSoQqqUTIqplm-23" value="1" style="text;html=1;align=center;verticalAlign=middle;resizable=0;points=[];autosize=1;strokeColor=none;fillColor=none;" vertex="1" parent="1">
          <mxGeometry x="495" y="248" width="30" height="30" as="geometry" />
        </mxCell>
        <mxCell id="_MW00zqFSoQqqUTIqplm-24" value="1" style="text;html=1;align=center;verticalAlign=middle;resizable=0;points=[];autosize=1;strokeColor=none;fillColor=none;" vertex="1" parent="1">
          <mxGeometry x="645" y="418" width="30" height="30" as="geometry" />
        </mxCell>
        <mxCell id="_MW00zqFSoQqqUTIqplm-27" value="*" style="text;html=1;align=center;verticalAlign=middle;resizable=0;points=[];autosize=1;strokeColor=none;fillColor=none;" vertex="1" parent="1">
          <mxGeometry x="285" y="138" width="30" height="30" as="geometry" />
        </mxCell>
        <mxCell id="_MW00zqFSoQqqUTIqplm-30" value="1" style="text;html=1;align=center;verticalAlign=middle;resizable=0;points=[];autosize=1;strokeColor=none;fillColor=none;" vertex="1" parent="1">
          <mxGeometry x="295" y="118" width="30" height="30" as="geometry" />
        </mxCell>
        <mxCell id="_MW00zqFSoQqqUTIqplm-36" value="*" style="text;html=1;align=center;verticalAlign=middle;resizable=0;points=[];autosize=1;strokeColor=none;fillColor=none;" vertex="1" parent="1">
          <mxGeometry x="305" y="518" width="30" height="30" as="geometry" />
        </mxCell>
        <mxCell id="_MW00zqFSoQqqUTIqplm-41" value="&lt;font style=&quot;font-size: 18px;&quot;&gt;DIAGRAMA DE CLASSES- FEEDBACK DE PRODUTOS&lt;/font&gt;" style="text;html=1;align=center;verticalAlign=middle;resizable=0;points=[];autosize=1;strokeColor=none;fillColor=none;" vertex="1" parent="1">
          <mxGeometry x="160" y="33" width="480" height="40" as="geometry" />
        </mxCell>
      </root>
    </mxGraphModel>
  </diagram>
</mxfile>
